<svg width="278" height="41" viewBox="0 0 278 41" fill="none" xmlns="http://www.w3.org/2000/svg">
<path opacity="0.2" d="M274.606 19.5787C275.673 19.5787 276.605 19.5787 277.938 19.5787C275.673 18.8876 273.54 19.4635 271.541 19.3483C270.475 19.0028 269.542 18.5421 267.943 18.7725C267.01 18.6573 266.077 18.6573 265.144 18.7725C264.877 18.5421 264.611 18.427 264.344 18.1966C264.211 18.0815 263.811 17.9663 263.678 17.8511C263.012 17.6208 262.345 17.5056 261.679 17.2753C262.079 17.1601 262.345 17.0449 262.745 16.9298C263.545 16.9298 264.344 16.8146 265.011 16.4691C265.677 16.2388 266.477 16.0084 266.343 15.6629V15.5478V15.4326C267.41 15.4326 268.609 15.4326 268.876 14.8567C268.742 14.6264 268.609 14.5112 268.476 14.2809C269.275 14.2809 270.075 14.5112 270.608 14.0506C271.141 13.5899 271.808 13.2444 272.474 12.8989C273.14 12.6685 273.807 12.5534 274.606 12.323C274.606 11.7472 275.139 11.2865 276.206 10.941C276.739 10.941 277.538 11.0562 277.938 10.8258C278.205 10.3652 277.538 10.3652 277.272 10.3652C276.472 10.25 275.539 10.25 274.74 10.1348C274.74 9.90449 274.74 9.67416 274.74 9.55899C274.873 9.44382 275.139 9.32865 275.273 9.09832C275.273 8.98315 275.273 8.98315 275.273 8.86798C275.806 8.75281 276.339 9.09831 277.005 8.98315C276.739 8.75281 276.339 8.63764 275.806 8.52247C275.539 8.29214 275.006 8.0618 274.34 7.94663C274.606 7.48596 272.874 7.37079 273.274 6.91011C274.073 7.02528 274.207 7.37079 275.273 7.37079C275.006 7.02528 274.473 6.91011 273.807 6.67978C273.407 6.44944 273.274 6.2191 272.474 6.2191C272.607 6.33427 272.741 6.56461 272.741 6.67978C272.074 6.67978 271.408 6.67978 270.741 6.67978C270.208 6.56461 269.675 6.44944 269.142 6.2191C269.142 6.10393 269.009 6.10393 268.876 5.98876C269.275 5.8736 269.809 5.8736 270.208 5.75843C271.408 5.64326 270.208 5.29775 270.608 5.18258C271.541 5.18258 272.074 4.83708 272.741 4.60674C273.673 4.49157 274.873 4.72191 275.939 4.26124C274.606 4.26124 273.54 4.3764 272.607 4.3764C272.474 4.26124 272.474 4.14607 272.341 4.0309C272.874 3.80056 273.94 3.80056 274.073 3.45506C273.94 3.45506 273.807 3.45506 273.673 3.45506C272.341 3.10955 270.875 3.33989 269.409 3.33989C267.809 3.33989 266.343 3.33989 264.744 3.33989C263.678 3.22472 262.612 3.22472 261.679 3.10955C261.546 3.10955 261.412 3.10955 261.279 3.10955C260.746 2.87921 258.747 3.10955 259.68 2.30337C257.414 1.49719 254.615 1.38202 251.817 1.26685C251.15 1.26685 250.484 1.26685 249.951 1.26685C247.418 1.15169 245.153 0.575843 242.621 0.921348C241.421 0.921348 240.355 0.460674 239.022 0.691011C238.223 0.691011 237.423 0.575843 236.89 0.80618C236.757 0.80618 236.623 0.80618 236.357 0.80618C235.424 0.460674 234.358 0.575843 233.291 0.575843C233.025 0.575843 232.625 0.575843 232.359 0.575843C230.226 0.230337 227.827 0.460674 225.562 0.230337C224.495 0.115169 223.562 0.115169 222.496 0.230337C221.297 0.230337 220.097 0.230337 218.898 0.230337C218.765 0.230337 218.631 0.230337 218.365 0.230337C217.165 0.230337 216.099 0.345506 214.9 0.345506C211.434 0.345506 207.969 0.230337 204.504 0.230337C204.371 0.230337 204.104 0.230337 203.971 0.230337C202.905 0.230337 201.839 0.230337 200.773 0.230337C200.639 0.345506 200.773 0.345506 200.906 0.460674H200.773C200.773 0.345506 200.773 0.345506 200.773 0.230337C200.506 0.230337 200.373 0.230337 200.106 0.230337C199.307 0 198.507 0 197.707 0C193.442 0 189.044 0 184.78 0C184.513 0.115169 184.513 0.115169 184.78 0.230337C189.044 0.230337 193.442 0.230337 197.707 0.230337C191.71 0.115169 185.579 0.115169 179.582 0.230337C179.449 0.345506 179.582 0.345506 179.715 0.345506H179.582C179.582 0.460674 179.582 0.460674 179.582 0.575843C179.715 0.460674 179.715 0.460674 179.582 0.345506V0.230337C179.049 0.230337 178.516 0.230337 177.983 0.230337C175.717 0.230337 173.318 0.115169 171.052 0.345506C170.919 0.345506 170.919 0.345506 170.919 0.345506C170.786 0.345506 170.653 0.345506 170.519 0.345506C169.453 0.230337 168.52 0.230337 167.454 0.345506C161.99 0.345506 156.526 0.230337 151.061 0.575843C149.462 0.575843 147.729 0.575843 146.13 0.575843C145.73 0.575843 145.464 0.575843 145.064 0.575843C145.597 0.460674 146.13 0.345506 146.663 0.345506C145.864 0.230337 145.064 0.115169 144.531 0.460674C143.465 0.460674 142.532 0.460674 141.466 0.460674C140.799 0.460674 140.266 0.460674 139.866 0.691011C137.467 0.691011 135.068 0.460674 132.803 0.80618C132.669 0.80618 132.669 0.80618 132.536 0.80618C127.472 0.80618 122.274 0.80618 117.21 0.921348C116.81 0.921348 116.543 0.921348 116.143 0.921348C111.479 0.921348 106.814 0.921348 102.15 0.921348C99.0844 0.921348 96.1524 1.03652 93.3536 1.03652C92.9538 1.03652 92.6872 1.03652 92.2874 1.03652C90.6881 1.03652 89.2221 1.03652 87.6228 1.03652C85.757 1.03652 83.7579 1.03652 81.892 1.03652C81.0924 1.03652 80.1595 1.03652 79.3598 1.03652C78.2936 1.03652 77.2275 1.03652 76.2945 1.03652C75.8947 1.03652 75.6282 1.03652 75.2283 1.03652C73.7623 1.03652 72.2963 1.03652 70.697 1.03652C68.9645 0.80618 67.2319 0.80618 65.3661 0.80618C64.0333 0.80618 62.7006 0.80618 61.3678 0.691011C60.1684 0.575843 58.8356 0.575843 57.6362 0.691011C57.1031 0.691011 56.7032 0.691011 56.1702 0.691011C53.7712 0.345506 51.3723 0.460674 48.8401 0.345506C47.5073 0 45.908 0.230337 44.3088 0.115169C43.5091 0 42.8427 -0.115169 42.7095 0.345506C41.7765 0.80618 41.9098 1.49719 40.8436 1.95787C39.6442 2.41854 39.6442 2.99438 40.4438 3.45506C40.4438 3.57023 40.5771 3.57022 40.7104 3.57022C41.1102 4.0309 41.6433 4.26124 42.1764 4.60674C40.4438 4.60674 39.3776 5.06742 38.3114 5.41292C37.9116 5.52809 37.5118 5.64326 37.3785 5.8736C36.9787 5.8736 36.5789 5.98876 36.4456 6.10393C35.6459 6.2191 34.3132 5.8736 33.9134 6.44944H33.7801C32.9805 6.44944 32.1808 6.44944 31.3812 6.44944C30.5815 6.2191 29.9152 6.2191 28.7157 6.2191C29.6486 6.56461 30.4482 6.67978 31.3812 6.67978C31.6477 6.79494 31.9143 6.79494 32.1808 6.91011C32.0475 7.48596 31.9143 7.94663 31.781 8.52247C31.9143 8.52247 32.0475 8.63764 32.1808 8.63764H32.0475C31.781 8.63764 31.6477 8.63764 31.3812 8.63764C30.8481 8.63764 30.315 8.63764 29.9152 8.63764C29.2488 8.75281 28.5824 8.75281 27.7828 8.86798C25.6504 9.09831 23.2514 9.21348 21.5189 9.9045C20.0529 10.0197 19.12 10.5955 17.6539 10.8258C18.7201 11.0562 19.2532 10.7107 20.0529 10.7107C20.1861 10.8258 20.4527 10.8258 20.586 10.941C20.1861 11.1713 19.7863 11.2865 19.5198 11.5169C17.9205 11.632 17.2541 12.0927 16.3212 12.5534C15.7881 12.6685 15.255 12.8989 15.3883 13.1292C15.7881 13.9354 13.2559 14.1657 13.1226 14.9719C13.789 14.7416 14.3221 14.6264 14.8552 14.5112C14.8552 14.6264 14.8552 14.6264 14.8552 14.7416C14.4554 14.9719 14.1888 15.2022 13.789 15.3174C14.3221 15.6629 14.0555 16.0084 13.2559 16.3539C12.7228 16.4691 12.1897 16.6994 11.7899 16.8146C11.3901 16.8146 10.9902 16.8146 10.7237 17.0449C8.45803 17.5056 8.45803 17.6208 10.9902 18.1966C10.9902 18.3118 11.1235 18.427 11.1235 18.5421C9.1244 18.5421 7.39183 18.8876 5.65927 19.2331C4.72635 19.4635 5.12617 19.5787 5.92582 19.5787C5.526 20.1545 4.19325 20.1545 3.26034 20.3848C2.72724 20.6152 2.19414 20.7303 1.52777 20.9607C2.46069 20.9607 3.26034 20.9607 4.05998 21.0758C4.4598 21.3062 4.32653 21.4213 3.52688 21.4213C2.46069 21.4213 1.52777 21.4213 0.195033 21.4213C2.46069 22.1124 4.59308 21.5365 6.59219 21.6517C7.65838 21.9972 8.5913 22.4579 10.1906 22.2275C11.1235 22.3427 12.0564 22.3427 12.9893 22.2275C12.9893 22.4579 13.3892 22.6882 13.5224 22.9185C13.6557 23.0337 14.0555 23.1489 14.3221 23.264C14.9885 23.4944 15.6548 23.6096 16.3212 23.8399C15.9214 23.9551 15.6548 24.0702 15.255 24.3006C14.4554 24.3006 13.6557 24.4157 12.9893 24.7612C12.323 24.9916 11.5233 25.2219 11.6566 25.5674V25.6826V25.7978C10.5904 25.7978 9.39095 25.7978 9.1244 26.3736C9.25767 26.4888 9.39094 26.7191 9.52422 26.8343C8.72457 26.8343 7.92493 26.6039 7.39183 27.0646C6.85874 27.5253 6.19237 27.8708 5.526 28.2163C4.85963 28.5618 4.05998 28.677 3.39361 28.9073C3.39361 29.4831 2.86051 29.9438 1.79432 30.2893C1.26123 30.2893 0.461581 30.1742 0.0617586 30.4045C-0.20479 30.6348 0.461581 30.6348 0.728129 30.6348C1.52777 30.75 2.46069 30.75 3.26034 30.8652C3.26034 31.0955 3.26034 31.3258 3.26034 31.441C3.26034 31.6713 3.12706 31.7865 2.86051 31.9017C2.86051 32.0169 2.86051 32.0169 2.86051 32.132C2.32742 32.2472 1.79432 31.9017 1.12795 32.132C1.3945 32.3624 1.9276 32.4775 2.32742 32.5927C2.72724 32.823 3.26034 33.0534 3.92671 33.1685C3.66016 33.6292 5.39272 33.7444 4.9929 34.2051C4.19326 34.0899 4.05998 33.7444 2.99379 33.7444C3.26034 34.0899 3.79343 34.2051 4.4598 34.4354C4.85963 34.5506 4.9929 34.7809 5.79254 34.7809C5.65927 34.6657 5.65927 34.5506 5.526 34.3202C6.19237 34.3202 6.85874 34.3202 7.52511 34.3202C8.0582 34.5506 8.5913 34.6657 9.1244 34.7809C9.1244 34.8961 9.25767 34.8961 9.39094 35.0112C8.99112 35.1264 8.45803 35.1264 8.0582 35.2416C6.85874 35.3567 8.0582 35.7022 7.65838 35.8174C6.72546 35.8174 6.19237 36.1629 5.526 36.3933C4.4598 36.5084 3.39361 36.2781 2.19414 36.6236C3.52688 36.6236 4.59308 36.5084 5.526 36.5084C5.65927 36.7388 5.65927 36.8539 5.79254 36.9691C6.05909 37.0843 6.19237 37.0843 6.45891 37.1994C6.45891 36.9691 6.32564 36.8539 5.79254 36.9691C5.39272 37.1994 4.19326 37.1994 4.05998 37.5449C4.19326 37.5449 4.32653 37.5449 4.4598 37.5449C5.79254 37.8904 7.25856 37.6601 8.72457 37.6601C10.3239 37.6601 11.7899 37.6601 13.3892 37.6601C14.3221 37.8904 15.3883 37.8904 16.4545 38.0056C16.5877 38.0056 16.721 38.0056 16.8543 38.0056C17.3874 38.3511 19.3865 38.1208 18.4536 38.8118C20.7192 39.618 23.518 39.7331 26.3168 39.8483C26.9831 39.8483 27.6495 39.8483 28.1826 39.8483C30.7148 39.9635 32.9805 40.5393 35.5127 40.1938C36.7121 40.1938 37.7783 40.6545 39.1111 40.4242C39.9107 40.4242 40.7104 40.5393 41.2435 40.309C41.3767 40.309 41.51 40.309 41.7766 40.309C42.7095 40.6545 43.7757 40.6545 44.8419 40.5393C45.1084 40.5393 45.5082 40.5393 45.7748 40.5393C47.9072 40.8848 50.3061 40.6545 52.5718 40.8848C53.6379 41 54.5709 41 55.6371 40.8848C56.8365 40.8848 58.036 40.8848 59.2355 40.8848C59.3687 40.8848 59.6353 40.8848 59.7686 40.8848C60.968 40.8848 62.0342 40.7697 63.2337 40.7697C66.6988 40.7697 70.1639 40.8848 73.6291 40.8848C73.7623 40.8848 74.0289 40.8848 74.1621 40.8848C75.2283 40.8848 76.2945 40.8848 77.3607 40.8848C77.494 40.7697 77.3607 40.7697 77.2275 40.6545H77.3607C77.3607 40.7697 77.3607 40.7697 77.3607 40.8848C77.6273 40.8848 77.7606 40.8848 78.0271 40.8848C78.6935 41 79.4931 41 80.426 41C84.6908 41 89.0889 41 93.3536 41C93.6202 40.8848 93.6202 40.8848 93.3536 40.7697C89.0889 40.7697 84.6908 40.7697 80.426 40.7697C86.4234 40.8848 92.554 40.8848 98.5513 40.7697C98.6846 40.6545 98.5513 40.6545 98.418 40.6545H98.5513C98.5513 40.5393 98.5513 40.5393 98.5513 40.4242C98.418 40.5393 98.418 40.5393 98.5513 40.6545V40.7697C99.0844 40.7697 99.6175 40.7697 100.151 40.7697C102.416 40.7697 104.815 40.8848 107.081 40.6545H107.214C107.347 40.6545 107.481 40.6545 107.614 40.6545C108.68 40.7697 109.613 40.7697 110.679 40.6545C116.143 40.6545 121.608 40.7697 127.072 40.4242C128.671 40.4242 130.404 40.4242 132.003 40.4242C132.403 40.4242 132.669 40.4242 133.069 40.4242C132.536 40.5393 132.003 40.6545 131.47 40.7697C132.27 40.8848 133.069 41 133.602 40.6545C134.669 40.6545 135.602 40.6545 136.668 40.6545C136.801 40.5393 136.801 40.5393 136.668 40.4242C136.668 40.5393 136.668 40.5393 136.668 40.6545C137.334 40.6545 137.867 40.6545 138.267 40.4242C140.666 40.309 143.198 40.6545 145.597 40.309C150.661 40.309 155.859 40.309 160.924 40.1938C161.323 40.1938 161.59 40.1938 161.99 40.1938C166.654 40.1938 171.319 40.1938 175.984 40.1938C178.916 40.0787 181.714 40.0787 184.646 39.9635C185.046 39.9635 185.313 39.9635 185.713 39.9635C187.312 39.9635 188.778 39.9635 190.377 39.9635C192.243 39.9635 194.242 39.9635 196.108 39.9635C196.908 39.9635 197.84 39.9635 198.64 39.9635C199.706 39.9635 200.639 39.9635 201.705 39.9635C202.105 39.9635 202.372 39.9635 202.772 39.9635C204.238 39.9635 205.704 39.9635 207.303 39.9635C207.303 39.9635 207.303 39.9635 207.436 39.9635C209.169 40.1938 210.901 40.1938 212.634 40.0787C213.967 40.0787 215.299 40.0787 216.632 40.1938C217.832 40.4242 219.164 40.309 220.364 40.309C220.897 40.309 221.297 40.309 221.83 40.309C224.229 40.6545 226.628 40.4242 229.027 40.5393C230.493 40.8848 232.092 40.6545 233.558 40.7697C234.358 41 235.024 41.1152 235.291 40.5393C236.223 40.0787 236.09 39.3876 237.156 38.927C238.223 38.4663 238.223 38.0056 237.556 37.4298C237.556 37.3146 237.423 37.3146 237.29 37.3146C236.757 36.9691 236.223 36.6236 235.824 36.2781C237.556 36.3933 238.489 35.9326 239.555 35.4719C240.088 35.3567 240.355 35.2416 240.488 35.0112C240.888 35.0112 241.288 34.8961 241.421 34.7809C242.221 34.6657 243.554 35.0112 243.953 34.4354H244.087C244.886 34.4354 245.686 34.4354 246.486 34.4354C247.285 34.6657 247.952 34.6657 249.151 34.6657C248.218 34.3202 247.418 34.2051 246.486 34.2051C246.219 34.0899 245.819 34.0899 245.553 33.9747C245.686 33.3989 245.819 32.9382 245.952 32.3624C245.819 32.2472 245.686 32.2472 245.553 32.2472H245.686C245.952 32.2472 246.086 32.2472 246.352 32.2472C246.885 32.2472 247.418 32.2472 247.818 32.2472C248.485 32.132 249.151 32.132 249.951 32.0169C252.083 31.7865 254.482 31.6714 256.215 30.9803C257.681 30.8652 258.613 30.2893 260.08 30.059C259.013 29.8287 258.48 30.1742 257.681 30.1742C257.547 30.059 257.281 30.059 257.147 29.9438C257.547 29.7135 257.947 29.5983 258.214 29.368C259.68 29.2528 260.479 28.7921 261.412 28.3315C261.945 28.2163 262.345 27.986 262.345 27.7556C262.079 26.9494 264.478 26.7191 264.611 25.9129C263.944 26.1433 263.411 26.2584 262.878 26.3736C262.878 26.2584 262.878 26.2584 262.878 26.1433C263.278 25.9129 263.545 25.7978 263.944 25.5674C263.411 25.2219 263.678 24.8764 264.478 24.5309C265.011 24.4157 265.544 24.1854 265.944 24.0702C266.343 24.0702 266.743 24.0702 267.01 23.8399C269.275 23.264 269.275 23.264 266.61 22.573C266.61 22.4579 266.477 22.3427 266.477 22.2275C268.476 22.2275 270.208 21.882 271.941 21.5365C272.874 21.3062 272.474 21.191 271.674 21.191C272.074 20.6152 273.407 20.6152 274.34 20.3848C274.873 20.1545 275.539 20.0393 276.206 19.809C275.273 19.809 274.473 19.809 273.673 19.6938C273.673 19.6938 273.807 19.5787 274.606 19.5787ZM6.59219 37.4298C6.45892 37.4298 6.45891 37.4298 6.32564 37.4298C6.32564 37.4298 6.45892 37.4298 6.59219 37.4298ZM102.683 1.38202H102.55C102.683 1.38202 102.683 1.38202 102.683 1.38202ZM43.3758 6.56461C43.3758 6.67978 43.5091 6.67978 43.3758 6.56461V6.56461ZM103.482 22.6882C103.349 22.6882 103.349 22.6882 103.482 22.6882V22.6882ZM220.231 35.7022C220.364 35.7022 220.497 35.7022 220.63 35.8174C220.497 35.8174 220.364 35.8174 220.231 35.7022ZM78.8267 3.68539C78.96 3.68539 79.0933 3.68539 79.2266 3.68539H79.0933C78.96 3.68539 78.8267 3.68539 78.8267 3.68539ZM81.6255 3.45506C81.4922 3.33989 81.892 3.45506 81.6255 3.45506V3.45506ZM60.4349 3.57022C60.3016 3.57022 60.1684 3.57022 60.1684 3.57022C60.3016 3.57022 60.4349 3.57022 60.4349 3.57022ZM18.9867 19.0028C18.8534 19.0028 18.8534 19.0028 18.7201 19.0028C18.7201 19.0028 18.7201 19.0028 18.8534 19.0028C18.8534 19.0028 18.8534 19.0028 18.9867 19.0028ZM199.173 37.4298C199.04 37.4298 198.907 37.4298 198.773 37.4298H198.907C199.04 37.4298 199.173 37.3146 199.173 37.4298ZM196.374 37.5449C196.108 37.5449 196.508 37.7753 196.374 37.5449V37.5449ZM217.565 37.4298C217.698 37.4298 217.698 37.4298 217.832 37.4298C217.698 37.4298 217.698 37.5449 217.565 37.4298ZM259.147 21.9972C259.28 21.9972 259.28 21.9972 259.413 21.9972C259.413 21.9972 259.413 21.9972 259.28 21.9972C259.147 21.9972 259.147 21.9972 259.147 21.9972ZM262.345 10.1348C262.212 10.1348 262.212 10.1348 262.345 10.1348V10.1348ZM15.9214 18.6573C15.9214 18.5421 15.9214 18.5421 15.9214 18.6573V18.6573ZM15.6548 30.8652C15.7881 30.8652 15.7881 30.9803 15.6548 30.8652C15.7881 30.9803 15.7881 30.9803 15.6548 30.8652C15.7881 30.9803 15.6548 30.9803 15.6548 30.8652ZM255.948 24.4157C256.081 24.4157 256.081 24.4157 255.948 24.4157C256.081 24.5309 256.081 24.5309 255.948 24.4157C256.081 24.5309 255.948 24.5309 255.948 24.4157ZM67.4984 2.64888C67.6317 2.53371 67.6317 2.53371 67.765 2.53371C67.6317 2.64888 67.4984 2.64888 67.4984 2.64888ZM210.635 38.3511C210.502 38.4663 210.502 38.4663 210.368 38.4663C210.368 38.3511 210.502 38.3511 210.635 38.3511ZM256.215 16.0084H256.081C256.081 15.8933 256.081 15.8933 256.215 16.0084ZM231.692 1.95787C231.426 1.8427 231.159 1.95787 231.026 1.95787C231.159 1.95787 231.426 1.95787 231.692 1.95787ZM55.104 2.53371C54.9707 2.64888 55.104 2.64888 55.104 2.53371C54.9707 2.53371 54.9707 2.64888 55.104 2.53371ZM21.7854 25.1067H21.9187C22.052 25.1067 21.9187 25.1067 21.7854 25.1067C21.9187 25.1067 21.9187 25.1067 21.7854 25.1067ZM46.3079 39.0421C46.5744 39.1573 46.841 39.0421 46.9742 39.0421C46.841 39.0421 46.7077 39.0421 46.3079 39.0421ZM57.3696 39.7331C57.2363 39.618 57.1031 39.618 56.8365 39.618C57.1031 39.618 57.2363 39.7331 57.3696 39.7331ZM256.881 17.8511H257.014C257.014 17.8511 257.014 17.8511 256.881 17.8511ZM196.108 1.26685C196.108 1.15169 196.108 1.15169 196.108 1.26685C196.241 1.26685 196.374 1.26685 196.374 1.26685C196.241 1.26685 196.108 1.26685 196.108 1.26685ZM41.51 8.0618C41.3767 8.0618 41.1102 8.0618 40.9769 8.0618C41.2435 8.0618 41.3767 8.0618 41.51 8.0618ZM82.0253 39.8483C81.8921 39.8483 81.8921 39.8483 82.0253 39.8483V39.8483ZM153.993 1.03652C154.127 1.03652 154.127 1.03652 153.993 1.03652V1.03652ZM17.3874 16.9298C17.3874 17.0449 17.3874 17.0449 17.3874 16.9298V16.9298ZM177.849 39.2725C177.849 39.1573 177.849 39.1573 177.849 39.2725H177.983C177.983 39.2725 177.983 39.1573 177.849 39.2725ZM212.501 39.9635C212.634 39.9635 212.634 39.9635 212.501 39.9635C212.501 40.0787 212.634 40.0787 212.501 39.9635ZM271.408 19.4635V19.5787C271.408 19.5787 271.408 19.5787 271.408 19.4635V19.5787C271.275 19.4635 271.275 19.4635 271.408 19.4635C271.275 19.4635 271.275 19.4635 271.408 19.4635ZM268.342 3.68539C268.209 3.57022 268.209 3.57022 268.342 3.68539V3.68539ZM133.602 1.26685C133.602 1.15169 133.602 1.15169 133.602 1.03652C133.469 1.03652 133.469 1.15169 133.602 1.26685ZM124.673 1.03652C124.806 1.03652 124.806 1.03652 124.673 1.03652V1.03652ZM99.351 1.26685H99.2177H99.0844C99.0844 1.26685 99.2177 1.26685 99.351 1.26685ZM97.7517 1.26685C97.8849 1.15169 97.8849 1.15169 98.0182 1.15169C97.8849 1.26685 97.7517 1.26685 97.7517 1.26685ZM54.5709 0.691011C54.4376 0.691011 54.4376 0.691011 54.4376 0.691011C54.5709 0.691011 54.5709 0.691011 54.5709 0.691011ZM6.72546 21.6517V21.5365C6.72546 21.5365 6.72546 21.5365 6.72546 21.6517V21.5365C6.72546 21.5365 6.85874 21.5365 6.72546 21.6517ZM9.65749 37.4298C9.79077 37.4298 9.79077 37.4298 9.65749 37.4298V37.4298ZM144.531 40.0787C144.664 39.9635 144.531 39.9635 144.531 39.8483C144.531 39.8483 144.531 39.9635 144.531 40.0787ZM153.327 39.9635C153.327 40.0787 153.327 40.0787 153.327 39.9635V39.9635ZM179.049 39.8483C178.916 39.8483 178.916 39.8483 178.782 39.8483H178.916H179.049C179.449 39.8483 179.715 39.8483 180.115 39.8483C180.115 39.8483 180.248 39.8483 180.382 39.7331C180.382 39.7331 180.248 39.7331 180.248 39.8483H180.115C179.715 39.7331 179.449 39.7331 179.049 39.8483ZM223.429 40.309C223.562 40.309 223.562 40.309 223.562 40.309H223.429Z" fill="#FFBF69"/>
</svg>
